<?xml version="1.0" encoding="UTF-8"?>
<svg version="1.1" xmlns="http://www.w3.org/2000/svg" width="512" height="512">
<path d="M0 0 C115.5 0 231 0 350 0 C350 92.73 350 185.46 350 281 C353.63 281.33 357.26 281.66 361 282 C370.54926691 283.9216791 380.66911991 286.80455052 387.10595703 294.52636719 C389.55169298 299.01179269 389.51327927 302.32177111 389.390625 307.3359375 C389.38496521 308.21528961 389.37930542 309.09464172 389.37347412 310.00064087 C389.35119084 312.79266182 389.30101063 315.58337092 389.25 318.375 C389.22992454 320.27472097 389.21167561 322.17446218 389.1953125 324.07421875 C389.15135256 328.71664666 389.08238182 333.35810137 389 338 C390.64778442 337.9851355 390.64778442 337.9851355 392.32885742 337.9699707 C405.42822827 338.07712124 417.75306359 345.13141614 427 354 C437.62900149 366.09956386 442.62873214 380.5008929 442.30859375 396.5078125 C441.00767884 411.22955848 434.75439908 425.42642684 423.48046875 435.1796875 C412.22976357 444.1743535 400.94305653 448.17768461 386.75 448.1875 C385.83347656 448.19974609 384.91695313 448.21199219 383.97265625 448.22460938 C378.26321668 448.23682644 373.49883168 447.48552316 368 446 C365.75472473 445.91835628 365.75472473 445.91835628 363.875 446.3125 C362.59625 446.539375 361.3175 446.76625 360 447 C359.05933162 447.17664183 358.11866324 447.35328365 357.14948976 447.53527826 C353.95884456 448.00607268 350.95693564 448.12418858 347.73316383 448.12304783 C345.86497805 448.12603414 345.86497805 448.12603414 343.95905113 448.12908077 C342.58578854 448.12622908 341.21252613 448.1232837 339.83926392 448.12025452 C338.37744122 448.12069215 336.91561859 448.12156945 335.45379639 448.12284851 C331.43285475 448.12509099 327.41193975 448.12107867 323.39100149 448.11607273 C318.98983126 448.11170739 314.58866227 448.11316726 310.18749046 448.11389065 C301.64327391 448.11442242 293.09906786 448.10980398 284.554854 448.10338932 C274.6722291 448.09619181 264.78961052 448.0953947 254.90698242 448.09460449 C228.81298662 448.08935328 202.71899315 448.07539218 176.625 448.0625 C118.33875 448.041875 60.0525 448.02125 0 448 C0 300.16 0 152.32 0 0 Z " fill="#D2D2D2" transform="translate(35,32)"/>
<path d="M0 0 C86.79 0 173.58 0 263 0 C263 14.52 263 29.04 263 44 C176.21 44 89.42 44 0 44 C0 29.48 0 14.96 0 0 Z " fill="#5B5B5B" transform="translate(78,58)"/>
<path d="M0 0 C11.9718602 8.93777044 19.72590843 21.90540982 22.1484375 36.67578125 C24.07211942 54.27878844 19.11922694 68.08609074 9.24609375 82.47265625 C-2.6567889 94.3755389 -16.0162668 100.44199905 -32.69140625 100.53515625 C-33.59117187 100.55578125 -34.4909375 100.57640625 -35.41796875 100.59765625 C-49.9222879 100.68101441 -62.29554954 93.99175705 -72.796875 84.17578125 C-79.6686875 76.83371226 -83.43420469 68.76740705 -86.56640625 59.28515625 C-86.81390625 58.56457031 -87.06140625 57.84398437 -87.31640625 57.1015625 C-91.05521942 44.61288796 -88.18438523 30.95036644 -82.44140625 19.59765625 C-76.94944086 10.04440552 -70.15060729 2.7397195 -60.56640625 -2.71484375 C-59.92058594 -3.09253906 -59.27476562 -3.47023438 -58.609375 -3.859375 C-39.93164877 -14.01610189 -17.35717753 -11.59787053 0 0 Z " fill="#9A9A9A" transform="translate(454.56640625,379.71484375)"/>
<path d="M0 0 C0 11.55 0 23.1 0 35 C11.55 35 23.1 35 35 35 C33.84625054 46.53749464 31.036514 56.13181285 21.9296875 63.7265625 C12.5677075 70.34845079 3.43764618 72.31539195 -8 71 C-19.47614852 67.92968678 -26.83249033 61.7146533 -32.7734375 51.625 C-36.56622914 43.50794272 -37.94573572 33.79972535 -35.44921875 25.07519531 C-31.01920753 13.16489977 -23.26147058 6.11031953 -11.96875 0.8125 C-9 0 -9 0 0 0 Z " fill="#525252" transform="translate(279,155)"/>
<path d="M0 0 C0.93629871 -0.00521549 1.87259743 -0.01043099 2.83726883 -0.01580453 C4.39064516 -0.00911236 4.39064516 -0.00911236 5.97540283 -0.002285 C7.07009258 -0.00540498 8.16478233 -0.00852497 9.2926445 -0.01173949 C12.98545358 -0.01975962 16.67810015 -0.01338022 20.37091064 -0.00710678 C23.00832608 -0.00981486 25.64573006 -0.01330201 28.28314209 -0.0177269 C34.71785796 -0.0266383 41.15252727 -0.02469114 47.58724499 -0.01890162 C52.8150642 -0.01439198 58.04287032 -0.01376919 63.27069092 -0.01594925 C64.3851135 -0.01640895 64.3851135 -0.01640895 65.52204967 -0.01687793 C67.03115114 -0.01751736 68.54025261 -0.01816579 70.04935408 -0.01882312 C84.21315576 -0.02453153 98.3769316 -0.01796052 112.54072905 -0.00722238 C124.70418795 0.00171359 136.86760868 0.00016169 149.03106689 -0.00905991 C163.14284011 -0.01975353 177.25459064 -0.02398216 191.36636734 -0.01783538 C192.87003835 -0.01719825 194.37370936 -0.01656951 195.87738037 -0.01594925 C196.9872456 -0.01548642 196.9872456 -0.01548642 198.11953235 -0.01501425 C203.34342666 -0.01328458 208.56730664 -0.01620825 213.79119873 -0.02090836 C220.15400528 -0.02650713 226.51676246 -0.02502199 232.87956333 -0.01434687 C236.12838504 -0.00907654 239.37710691 -0.00812599 242.62593079 -0.01364517 C246.14159358 -0.01906908 249.65702087 -0.01230497 253.17266846 -0.002285 C254.20825268 -0.00674645 255.2438369 -0.01120789 256.31080246 -0.01580453 C257.71525053 -0.00798129 257.71525053 -0.00798129 259.14807129 0 C259.96034809 0.0003247 260.77262489 0.00064941 261.60951614 0.00098395 C263.57403564 0.25168228 263.57403564 0.25168228 265.57403564 2.25168228 C265.93351284 5.0556044 266.07179127 6.5932608 264.3366909 8.8884179 C262.09224193 10.62430886 260.87809015 10.62660498 258.05905151 10.62641239 C256.66299211 10.63722221 256.66299211 10.63722221 255.23872948 10.6482504 C253.70241843 10.63718897 253.70241843 10.63718897 252.1350708 10.62590408 C250.50506354 10.63186569 250.50506354 10.63186569 248.84212685 10.63794774 C245.18231955 10.64761129 241.52289491 10.63572786 237.86309814 10.62399673 C235.24686539 10.62642335 232.63063356 10.63014141 230.0144043 10.63505936 C223.63494406 10.64455867 217.25559676 10.63793765 210.87614489 10.62579641 C203.45125473 10.61219073 196.02639162 10.61381301 188.60149217 10.61592975 C175.35598864 10.61912129 162.11053886 10.60744248 148.86505127 10.58786392 C136.00435754 10.56885906 123.14372679 10.56177617 110.28302002 10.56735611 C96.28768874 10.57341035 82.29238518 10.57324335 68.2970562 10.56187028 C66.80545934 10.56066295 65.31386248 10.55945697 63.82226562 10.55825233 C63.08831939 10.5576488 62.35437316 10.55704526 61.59818614 10.55642343 C56.41933608 10.55253982 51.24049632 10.55293962 46.06164551 10.55483818 C39.0948176 10.55717868 32.12807234 10.54865034 25.16126251 10.53277779 C22.59855739 10.52852194 20.03584405 10.52769306 17.4731369 10.53046799 C13.98633451 10.53367171 10.49977762 10.52465364 7.01300049 10.51237869 C5.98879313 10.51615802 4.96458576 10.51993734 3.90934181 10.52383119 C2.97863554 10.517999 2.04792927 10.5121668 1.08901978 10.50615788 C0.28374029 10.5052911 -0.52153919 10.50442432 -1.35122108 10.50353128 C-3.42596436 10.25168228 -3.42596436 10.25168228 -6.42596436 8.25168228 C-6.73846436 5.25168228 -6.73846436 5.25168228 -6.42596436 2.25168228 C-3.97909214 -0.19518993 -3.35675912 0.00134185 0 0 Z " fill="#5D5D5D" transform="translate(80.42596435546875,288.74831771850586)"/>
<path d="M0 0 C0.93629871 -0.00521549 1.87259743 -0.01043099 2.83726883 -0.01580453 C4.39064516 -0.00911236 4.39064516 -0.00911236 5.97540283 -0.002285 C7.07009258 -0.00540498 8.16478233 -0.00852497 9.2926445 -0.01173949 C12.98545358 -0.01975962 16.67810015 -0.01338022 20.37091064 -0.00710678 C23.00832608 -0.00981486 25.64573006 -0.01330201 28.28314209 -0.0177269 C34.71785796 -0.0266383 41.15252727 -0.02469114 47.58724499 -0.01890162 C52.8150642 -0.01439198 58.04287032 -0.01376919 63.27069092 -0.01594925 C64.3851135 -0.01640895 64.3851135 -0.01640895 65.52204967 -0.01687793 C67.03115114 -0.01751736 68.54025261 -0.01816579 70.04935408 -0.01882312 C84.21315576 -0.02453153 98.3769316 -0.01796052 112.54072905 -0.00722238 C124.70418795 0.00171359 136.86760868 0.00016169 149.03106689 -0.00905991 C163.14284011 -0.01975353 177.25459064 -0.02398216 191.36636734 -0.01783538 C192.87003835 -0.01719825 194.37370936 -0.01656951 195.87738037 -0.01594925 C196.9872456 -0.01548642 196.9872456 -0.01548642 198.11953235 -0.01501425 C203.34342666 -0.01328458 208.56730664 -0.01620825 213.79119873 -0.02090836 C220.15400528 -0.02650713 226.51676246 -0.02502199 232.87956333 -0.01434687 C236.12838504 -0.00907654 239.37710691 -0.00812599 242.62593079 -0.01364517 C246.14159358 -0.01906908 249.65702087 -0.01230497 253.17266846 -0.002285 C254.20825268 -0.00674645 255.2438369 -0.01120789 256.31080246 -0.01580453 C257.71525053 -0.00798129 257.71525053 -0.00798129 259.14807129 0 C259.96034809 0.0003247 260.77262489 0.00064941 261.60951614 0.00098395 C263.57403564 0.25168228 263.57403564 0.25168228 265.57403564 2.25168228 C265.93350334 5.0555303 266.07187564 6.59321943 264.3366909 8.88824332 C262.09270882 10.62399544 260.87768456 10.62750091 258.05905151 10.6292057 C257.12834524 10.63702895 256.19763897 10.64485219 255.23872948 10.6529125 C254.21452211 10.64622033 253.19031475 10.63952817 252.1350708 10.63263321 C250.50506354 10.63965317 250.50506354 10.63965317 248.84212685 10.64681494 C245.18232832 10.65882956 241.52289979 10.64928229 237.86309814 10.63986588 C235.24686463 10.64392869 232.63063283 10.64926893 230.0144043 10.65579605 C223.63495065 10.66915493 217.25560272 10.6662461 210.87614489 10.65755813 C205.69268963 10.65079044 200.50926407 10.64986089 195.32580566 10.65312958 C194.58883221 10.65358928 193.85185876 10.65404898 193.09255278 10.65452261 C191.59553257 10.65548175 190.09851236 10.65645439 188.60149217 10.65744038 C174.5549587 10.66600058 160.50848392 10.65615028 146.46196008 10.64003928 C134.402284 10.62663552 122.34269454 10.62896343 110.28302002 10.64279556 C96.28768423 10.65884027 82.2923999 10.66517655 68.2970562 10.65595877 C66.80545935 10.6550031 65.31386249 10.65405999 63.82226562 10.65312958 C63.08831939 10.65266675 62.35437316 10.65220392 61.59818614 10.65172707 C56.41932672 10.64913385 51.24049988 10.65351533 46.06164551 10.66056824 C39.09479017 10.66984736 32.12810161 10.66326674 25.16126251 10.64588547 C22.59855675 10.64190577 20.03583727 10.64307981 17.4731369 10.64967346 C13.98623578 10.65782041 10.49986728 10.64765011 7.01300049 10.63263321 C5.47668944 10.64267146 5.47668944 10.64267146 3.90934181 10.6529125 C2.5132824 10.64117763 2.5132824 10.64117763 1.08901978 10.6292057 C0.28374029 10.62871865 -0.52153919 10.62823159 -1.35122108 10.62772977 C-3.95484123 10.15582328 -4.84561597 9.34191348 -6.42596436 7.25168228 C-6.73846436 4.68918228 -6.73846436 4.68918228 -6.42596436 2.25168228 C-3.97909214 -0.19518993 -3.35675912 0.00134185 0 0 Z " fill="#5E5E5E" transform="translate(80.42596435546875,256.74831771850586)"/>
<path d="M0 0 C0.6084375 0.7734375 1.216875 1.546875 1.84375 2.34375 C11.23574358 13.91359716 25.05440176 15.92359302 39 18 C41.00059886 18.32972008 43.00085334 18.66158646 45 19 C45.33 18.34 45.66 17.68 46 17 C46.29132813 17.90621094 46.58265625 18.81242187 46.8828125 19.74609375 C49.39919004 27.22400813 52.12081634 33.72496741 57 40 C57.43828125 40.61230469 57.8765625 41.22460938 58.328125 41.85546875 C62.53929873 47.33725525 68.10796367 50.53510528 74 54 C75.66686894 54.9996628 77.33359928 55.99955689 79 57 C73.83824583 62.16175417 63.85868026 61.27309103 57.02734375 61.3293457 C55.84269531 61.32378662 54.65804687 61.31822754 53.4375 61.3125 C52.20257813 61.30758545 50.96765625 61.3026709 49.6953125 61.29760742 C33.30000632 61.08837413 15.8827547 59.23814772 3 48 C-0.42119107 42.76263347 -0.39823154 38.26156076 -0.29296875 32.2265625 C-0.28872391 31.3028183 -0.28447906 30.3790741 -0.28010559 29.42733765 C-0.26338673 26.4929217 -0.22574716 23.55920644 -0.1875 20.625 C-0.17244438 18.62891621 -0.15875751 16.63282159 -0.14648438 14.63671875 C-0.11350545 9.75754478 -0.06177014 4.87889097 0 0 Z " fill="#BFBFBF" transform="translate(322,419)"/>
<path d="M0 0 C2.4375 0.8125 2.4375 0.8125 4.4375 2.8125 C4.5625 6.4375 4.5625 6.4375 4.4375 9.8125 C5.07816406 9.95945313 5.71882813 10.10640625 6.37890625 10.2578125 C12.50282699 11.84583368 17.41183378 13.74676803 21.4375 18.8125 C22.5625 22 22.5625 22 22.4375 24.8125 C21.3125 26.75 21.3125 26.75 19.4375 27.8125 C14.98642063 27.69536633 12.76389346 25.55677461 9.4375 22.8125 C7.7875 22.1525 6.1375 21.4925 4.4375 20.8125 C4.4375 26.7525 4.4375 32.6925 4.4375 38.8125 C6.4175 39.1425 8.3975 39.4725 10.4375 39.8125 C16.18647957 42.8608913 19.92971281 46.85650543 22.4375 52.8125 C23.29338135 58.69668426 21.71985145 63.00511757 18.4375 67.8125 C15.3327022 71.18099296 11.84804676 73.50125637 7.4375 74.8125 C6.4475 74.8125 5.4575 74.8125 4.4375 74.8125 C4.499375 76.070625 4.56125 77.32875 4.625 78.625 C4.61551584 81.29953401 4.60186153 82.52702998 3.25 84.875 C1.4375 85.8125 1.4375 85.8125 -1.125 85.625 C-3.5625 84.8125 -3.5625 84.8125 -5.5625 82.8125 C-5.6875 79.1875 -5.6875 79.1875 -5.5625 75.8125 C-6.3875 75.750625 -7.2125 75.68875 -8.0625 75.625 C-13.77618546 74.29860873 -17.95590465 71.37991009 -22.125 67.3125 C-23.5625 64.8125 -23.5625 64.8125 -23.4375 62.125 C-22.5625 59.8125 -22.5625 59.8125 -20.5625 57.8125 C-15.65757983 57.94874778 -13.12590168 60.70400066 -9.5625 63.8125 C-8.2425 64.4725 -6.9225 65.1325 -5.5625 65.8125 C-5.5625 59.5425 -5.5625 53.2725 -5.5625 46.8125 C-7.5425 46.4825 -9.5225 46.1525 -11.5625 45.8125 C-16.51413544 43.68030111 -20.53962302 40.73873954 -22.9375 35.8359375 C-24.60651194 30.43251134 -24.41900722 25.55845704 -21.9375 20.5 C-18.43941326 16.54163869 -14.6218536 12.66759632 -9.5625 10.8125 C-8.2425 10.8125 -6.9225 10.8125 -5.5625 10.8125 C-5.624375 9.554375 -5.68625 8.29625 -5.75 7 C-5.74051584 4.32546599 -5.72686153 3.09797002 -4.375 0.75 C-2.5625 -0.1875 -2.5625 -0.1875 0 0 Z " fill="#6A6A6A" transform="translate(140.5625,137.1875)"/>
<path d="M0 0 C2.04698414 2.04698414 1.70045693 6.30411241 2 9 C2.72445313 9.21914063 3.44890625 9.43828125 4.1953125 9.6640625 C10.58169349 11.75879547 14.94969838 13.52661944 19 19 C19.5625 22.25 19.5625 22.25 19 25 C16 27 16 27 13.6875 26.9375 C10.11249844 25.69040643 7.86579806 23.43897707 5 21 C3.68 20.67 2.36 20.34 1 20 C1 25.94 1 31.88 1 38 C2.98 38.33 4.96 38.66 7 39 C12.35726516 41.39265757 16.58204575 44.55960294 19 50 C19.7478772 55.14944615 19.82607169 60.1495573 17.4375 64.875 C13.2102584 70.29454052 8.67347235 73.2095562 2 75 C1.896875 76.27875 1.79375 77.5575 1.6875 78.875 C1.51171875 81.0546875 1.51171875 81.0546875 1 83 C-2 85 -2 85 -4.5625 84.75 C-7 84 -7 84 -9 82 C-9.125 78.375 -9.125 78.375 -9 75 C-9.804375 74.95875 -10.60875 74.9175 -11.4375 74.875 C-17.38272334 73.41476971 -22.59186897 70.11219655 -26 65 C-26.3125 61.9375 -26.3125 61.9375 -26 59 C-23 57 -23 57 -20.625 57.0625 C-17.19775886 58.28651469 -15.51768486 60.41775912 -13 63 C-11.68 63.33 -10.36 63.66 -9 64 C-9 58.06 -9 52.12 -9 46 C-11.64 45.34 -14.28 44.68 -17 44 C-19.2421875 42.6328125 -19.2421875 42.6328125 -20.875 41.125 C-21.42929687 40.63257813 -21.98359375 40.14015625 -22.5546875 39.6328125 C-26.51436261 35.15944981 -26.49378585 30.7578871 -26.3671875 24.9765625 C-25.81611646 20.50936961 -24.38915168 17.92947364 -21 15 C-13.71683673 10 -13.71683673 10 -9 10 C-9.061875 8.741875 -9.12375 7.48375 -9.1875 6.1875 C-9.17351956 3.55917819 -9.14785536 2.27106816 -7.875 -0.0625 C-5.03680106 -1.48159947 -2.99025324 -0.78006606 0 0 Z " fill="#D2D2D2" transform="translate(425,383)"/>
<path d="M0 0 C0.64549899 -0.00311998 1.29099798 -0.00623996 1.95605755 -0.00945449 C4.12875568 -0.01746049 6.30117652 -0.01110091 8.47387695 -0.00482178 C10.02755904 -0.00753049 11.58123985 -0.01109075 13.13491821 -0.01544189 C17.36210384 -0.02458243 21.58919216 -0.02101482 25.81637955 -0.01468372 C30.23305785 -0.00963232 34.64972763 -0.01431278 39.06640625 -0.01745605 C46.48447165 -0.02109822 53.90249727 -0.01629006 61.32055664 -0.0067749 C69.90590573 0.00411013 78.49115983 0.00058473 87.07650661 -0.01042771 C94.43788436 -0.01949349 101.79923345 -0.02078935 109.16061497 -0.01555037 C113.56155009 -0.01242676 117.96244052 -0.01203203 122.3633728 -0.01862335 C126.50016111 -0.02438589 130.63682655 -0.02042006 134.77360153 -0.00883484 C136.29501516 -0.00618238 137.81643907 -0.00696328 139.33784866 -0.01136017 C141.40847918 -0.01679416 143.47871152 -0.01000815 145.54931641 0 C147.29037407 0.00113108 147.29037407 0.00113108 149.06660461 0.002285 C151.7746582 0.25396729 151.7746582 0.25396729 153.7746582 2.25396729 C154.0871582 5.25396729 154.0871582 5.25396729 153.7746582 8.25396729 C150.21181373 10.62919693 148.69473105 10.50516827 144.46702576 10.50793457 C143.82475589 10.51105455 143.18248603 10.51417453 142.52075344 10.51738906 C140.36497972 10.52537721 138.20948684 10.51904242 136.05371094 10.51275635 C134.50973343 10.51546583 132.96575721 10.51902651 131.42178345 10.52337646 C127.2256475 10.53250714 123.02960971 10.52895363 118.83347201 10.52261829 C114.44749606 10.51756272 110.06152864 10.52224843 105.67555237 10.52539062 C98.31054166 10.52903118 90.94557103 10.52422843 83.58056641 10.51470947 C75.05711229 10.50382071 66.53375381 10.50735319 58.01030201 10.51836228 C50.69985904 10.52742781 43.38944492 10.52872417 36.07899815 10.52348495 C31.70937695 10.52036171 27.33980076 10.51996564 22.97018242 10.52655792 C18.86374923 10.53232025 14.75743982 10.52835505 10.65102005 10.51676941 C9.14089349 10.51411701 7.63075657 10.51489775 6.12063408 10.51929474 C4.06552875 10.52472847 2.01040075 10.51671863 -0.04469299 10.50793457 C-1.19672494 10.50718052 -2.34875689 10.50642647 -3.53569889 10.50564957 C-6.2253418 10.25396729 -6.2253418 10.25396729 -8.2253418 8.25396729 C-8.4753418 5.25396729 -8.4753418 5.25396729 -8.2253418 2.25396729 C-5.46219908 -0.50917543 -3.87150036 0.00251512 0 0 Z " fill="#5B5B5B" transform="translate(148.225341796875,360.74603271484375)"/>
<path d="M0 0 C0.64549899 -0.00311998 1.29099798 -0.00623996 1.95605755 -0.00945449 C4.12875568 -0.01746049 6.30117652 -0.01110091 8.47387695 -0.00482178 C10.02755904 -0.00753049 11.58123985 -0.01109075 13.13491821 -0.01544189 C17.36210384 -0.02458243 21.58919216 -0.02101482 25.81637955 -0.01468372 C30.23305785 -0.00963232 34.64972763 -0.01431278 39.06640625 -0.01745605 C46.48447165 -0.02109822 53.90249727 -0.01629006 61.32055664 -0.0067749 C69.90590573 0.00411013 78.49115983 0.00058473 87.07650661 -0.01042771 C94.43788436 -0.01949349 101.79923345 -0.02078935 109.16061497 -0.01555037 C113.56155009 -0.01242676 117.96244052 -0.01203203 122.3633728 -0.01862335 C126.50016111 -0.02438589 130.63682655 -0.02042006 134.77360153 -0.00883484 C136.29501516 -0.00618238 137.81643907 -0.00696328 139.33784866 -0.01136017 C141.40847918 -0.01679416 143.47871152 -0.01000815 145.54931641 0 C147.29037407 0.00113108 147.29037407 0.00113108 149.06660461 0.002285 C151.7746582 0.25396729 151.7746582 0.25396729 153.7746582 2.25396729 C154.0871582 5.25396729 154.0871582 5.25396729 153.7746582 8.25396729 C150.21181373 10.62919693 148.69473105 10.50516827 144.46702576 10.50793457 C143.82475589 10.51105455 143.18248603 10.51417453 142.52075344 10.51738906 C140.36497972 10.52537721 138.20948684 10.51904242 136.05371094 10.51275635 C134.50973343 10.51546583 132.96575721 10.51902651 131.42178345 10.52337646 C127.2256475 10.53250714 123.02960971 10.52895363 118.83347201 10.52261829 C114.44749606 10.51756272 110.06152864 10.52224843 105.67555237 10.52539062 C98.31054166 10.52903118 90.94557103 10.52422843 83.58056641 10.51470947 C75.05711229 10.50382071 66.53375381 10.50735319 58.01030201 10.51836228 C50.69985904 10.52742781 43.38944492 10.52872417 36.07899815 10.52348495 C31.70937695 10.52036171 27.33980076 10.51996564 22.97018242 10.52655792 C18.86374923 10.53232025 14.75743982 10.52835505 10.65102005 10.51676941 C9.14089349 10.51411701 7.63075657 10.51489775 6.12063408 10.51929474 C4.06552875 10.52472847 2.01040075 10.51671863 -0.04469299 10.50793457 C-1.19672494 10.50718052 -2.34875689 10.50642647 -3.53569889 10.50564957 C-6.2253418 10.25396729 -6.2253418 10.25396729 -8.2253418 8.25396729 C-8.4753418 5.25396729 -8.4753418 5.25396729 -8.2253418 2.25396729 C-5.46219908 -0.50917543 -3.87150036 0.00251512 0 0 Z " fill="#5B5B5B" transform="translate(148.225341796875,323.74603271484375)"/>
<path d="M0 0 C6.93 0 13.86 0 21 0 C21 21.12 21 42.24 21 64 C14.07 64 7.14 64 0 64 C0 42.88 0 21.76 0 0 Z " fill="#939393" transform="translate(166,390)"/>
<path d="M0 0 C9.99724409 0 17.28442864 2.53979583 25 9 C32.83607395 17.06791045 36 24.8054049 36 36 C24.12 36 12.24 36 0 36 C0 24.12 0 12.24 0 0 Z " fill="#949494" transform="translate(299,134)"/>
<path d="M0 0 C6.6 0 13.2 0 20 0 C20 16.5 20 33 20 50 C13.4 50 6.8 50 0 50 C0 33.5 0 17 0 0 Z " fill="#686868" transform="translate(123,404)"/>
<path d="M0 0 C1.07607513 -0.00788544 1.07607513 -0.00788544 2.17388916 -0.01593018 C4.54583492 -0.02913686 6.91710988 -0.02039017 9.2890625 -0.01025391 C10.93668751 -0.01227446 12.58431165 -0.01518574 14.23193359 -0.01895142 C17.68530796 -0.02337566 21.13844956 -0.01694062 24.59179688 -0.00292969 C29.0206861 0.01416241 33.44902996 0.00432175 37.87789917 -0.01364708 C41.28023394 -0.0244823 44.68243919 -0.02103981 48.08477783 -0.0132637 C49.71787582 -0.01126096 51.35098552 -0.01372357 52.98406982 -0.02070236 C55.26573888 -0.02831274 57.54652202 -0.0167195 59.828125 0 C61.7764624 0.00358017 61.7764624 0.00358017 63.76416016 0.00723267 C66.9140625 0.38818359 66.9140625 0.38818359 68.83740234 1.75228882 C70.36172641 4.06837135 70.26161478 5.6772758 69.9140625 8.38818359 C67.48060445 10.82164165 66.18555303 10.62994425 62.86437988 10.65924072 C62.1640564 10.65519226 61.46373291 10.6511438 60.7421875 10.64697266 C60.00383667 10.65047729 59.26548584 10.65398193 58.50476074 10.65759277 C56.05776642 10.66641409 53.6110599 10.66055964 51.1640625 10.65380859 C49.46777287 10.65515513 47.77148362 10.65709557 46.07519531 10.65960693 C42.5175408 10.66255873 38.95998662 10.65825878 35.40234375 10.64892578 C30.83555109 10.63753118 26.2689935 10.64409036 21.70220947 10.65607071 C18.19871236 10.66328782 14.69527124 10.66100208 11.19177246 10.65581512 C9.50760877 10.65447821 7.82344004 10.65612779 6.13928223 10.66077423 C3.78802976 10.66583706 1.43716127 10.65813292 -0.9140625 10.64697266 C-1.61438599 10.65102112 -2.31470947 10.65506958 -3.03625488 10.65924072 C-7.85740835 10.61671275 -7.85740835 10.61671275 -10.0859375 8.38818359 C-10.43348978 5.6772758 -10.53360141 4.06837135 -9.00927734 1.75228882 C-6.07219557 -0.33080046 -3.56755258 0.00655556 0 0 Z " fill="#5F5F5F" transform="translate(225.0859375,430.61181640625)"/>
<path d="M0 0 C1.78700317 -0.01418472 1.78700317 -0.01418472 3.61010742 -0.02865601 C5.54140503 -0.01954697 5.54140503 -0.01954697 7.51171875 -0.01025391 C8.8454606 -0.01227496 10.17920138 -0.01518666 11.51293945 -0.01895142 C14.30723601 -0.02337336 17.10124473 -0.01694831 19.89550781 -0.00292969 C23.4769634 0.01416265 27.05774457 0.0043207 30.63917542 -0.01364708 C33.39299601 -0.02448872 36.14665676 -0.02103695 38.90048218 -0.0132637 C40.8631026 -0.01028969 42.82572923 -0.01939932 44.78833008 -0.02865601 C45.97966553 -0.01919952 47.17100098 -0.00974304 48.3984375 0 C49.44862061 0.00238678 50.49880371 0.00477356 51.58081055 0.00723267 C54.19921875 0.38818359 54.19921875 0.38818359 56.04223633 1.75228882 C57.6728412 4.05785365 57.55259253 5.63186814 57.19921875 8.38818359 C54.4957996 11.09160274 53.0933783 10.64145812 49.3125 10.64697266 C48.07781982 10.65327698 46.84313965 10.6595813 45.57104492 10.66607666 C44.21793475 10.66249698 42.86482588 10.65839504 41.51171875 10.65380859 C40.12931246 10.65515534 38.74690662 10.65709595 37.36450195 10.65960693 C34.46593724 10.66255777 31.56749572 10.65826195 28.66894531 10.64892578 C24.94961238 10.63753114 21.23056807 10.64409085 17.51124573 10.65607071 C14.65626848 10.66329047 11.8013599 10.66100087 8.94638062 10.65581512 C7.57481858 10.65447894 6.20325036 10.65612526 4.83169556 10.66077423 C2.91644405 10.66584107 1.00117074 10.65675191 -0.9140625 10.64697266 C-2.00501221 10.64538147 -3.09596191 10.64379028 -4.2199707 10.64215088 C-6.80078125 10.38818359 -6.80078125 10.38818359 -8.80078125 8.38818359 C-9.15415503 5.63186814 -9.2744037 4.05785365 -7.64379883 1.75228882 C-5.05168668 -0.16625703 -3.20695242 0.00728853 0 0 Z " fill="#5E5E5E" transform="translate(223.80078125,401.61181640625)"/>
<path d="M0 0 C2.6796875 0.5859375 2.6796875 0.5859375 4.6796875 2.5859375 C5.2421875 4.7734375 5.2421875 4.7734375 4.6796875 7.5859375 C3.13773901 9.45634839 1.4488432 11.05461233 -0.328125 12.703125 C-2.28344754 14.5510965 -4.01513377 16.47558922 -5.7578125 18.5234375 C-8.27853359 21.41801835 -10.81616457 24.28907657 -13.4453125 27.0859375 C-14.37730469 28.09140625 -14.37730469 28.09140625 -15.328125 29.1171875 C-17.3203125 30.5859375 -17.3203125 30.5859375 -19.66796875 31.09375 C-23.40889139 30.37752033 -25.80223676 28.36159591 -28.6328125 25.9609375 C-29.18259766 25.53425781 -29.73238281 25.10757812 -30.29882812 24.66796875 C-33.0973408 22.33877187 -34.24934603 21.0056097 -34.86328125 17.375 C-34.68410156 16.45460938 -34.50492187 15.53421875 -34.3203125 14.5859375 C-31.3203125 12.5859375 -31.3203125 12.5859375 -28.9453125 12.7109375 C-25.78532705 13.76426598 -23.79785914 15.39153905 -21.3203125 17.5859375 C-18.1726561 16.2151977 -16.29956064 14.71224872 -14.078125 12.109375 C-13.48644531 11.4390625 -12.89476563 10.76875 -12.28515625 10.078125 C-11.05806575 8.66605908 -9.83928097 7.2467326 -8.62890625 5.8203125 C-4.09165558 0.72205687 -4.09165558 0.72205687 0 0 Z " fill="#5D5D5D" transform="translate(108.3203125,350.4140625)"/>
<path d="M0 0 C2.6796875 0.5859375 2.6796875 0.5859375 4.6796875 2.5859375 C5.2421875 4.7734375 5.2421875 4.7734375 4.6796875 7.5859375 C3.13773901 9.45634839 1.4488432 11.05461233 -0.328125 12.703125 C-2.28344754 14.5510965 -4.01513377 16.47558922 -5.7578125 18.5234375 C-8.27853359 21.41801835 -10.81616457 24.28907657 -13.4453125 27.0859375 C-14.37730469 28.09140625 -14.37730469 28.09140625 -15.328125 29.1171875 C-17.3203125 30.5859375 -17.3203125 30.5859375 -19.6640625 31.08984375 C-23.40801249 30.37959441 -25.83947562 28.40100772 -28.6953125 26.0234375 C-29.25347656 25.60513672 -29.81164062 25.18683594 -30.38671875 24.75585938 C-31.96875 23.45703125 -31.96875 23.45703125 -34.3203125 20.5859375 C-34.171875 16.74609375 -34.171875 16.74609375 -33.3203125 13.5859375 C-30.6953125 12.7734375 -30.6953125 12.7734375 -27.3203125 12.5859375 C-24.9616627 14.00962702 -23.31328413 15.64041758 -21.3203125 17.5859375 C-18.1726561 16.2151977 -16.29956064 14.71224872 -14.078125 12.109375 C-13.48644531 11.4390625 -12.89476563 10.76875 -12.28515625 10.078125 C-11.05806575 8.66605908 -9.83928097 7.2467326 -8.62890625 5.8203125 C-4.09165558 0.72205687 -4.09165558 0.72205687 0 0 Z " fill="#5D5D5D" transform="translate(108.3203125,313.4140625)"/>
<path d="M0 0 C6.32352941 2.52941176 6.32352941 2.52941176 8 5 C8.5 7.875 8.5 7.875 8 11 C5.6875 13.875 5.6875 13.875 3 16 C2.01 16 1.02 16 0 16 C0 10.72 0 5.44 0 0 Z " fill="#9F9F9F" transform="translate(426,431)"/>
<path d="M0 0 C0 5.28 0 10.56 0 16 C-6.25 13.5 -6.25 13.5 -8 10 C-8 7 -8 7 -7 4 C-2.89473684 0 -2.89473684 0 0 0 Z " fill="#CECECE" transform="translate(135,158)"/>
<path d="M0 0 C6 3 6 3 8 6 C7.91428178 10.02875655 7.48129108 11.53104971 4.5625 14.375 C2 16 2 16 0 16 C0 10.72 0 5.44 0 0 Z " fill="#CFCFCF" transform="translate(145,186)"/>
<path d="M0 0 C0 4.95 0 9.9 0 15 C-6 12 -6 12 -7 11 C-7.58602771 4.78810624 -7.58602771 4.78810624 -5.1875 1.5625 C-3 0 -3 0 0 0 Z " fill="#9B9B9B" transform="translate(416,404)"/>
</svg>
