<?xml version="1.0" encoding="UTF-8"?>
<svg version="1.1" xmlns="http://www.w3.org/2000/svg" width="512" height="512">
<path d="M0 0 C1.78086622 -0.00576172 1.78086622 -0.00576172 3.59770954 -0.01163983 C4.90848283 -0.01077335 6.21925613 -0.00990687 7.56974983 -0.00901413 C8.97120849 -0.01159714 10.37266641 -0.01461012 11.77412331 -0.01801753 C15.63423098 -0.02609817 19.49432007 -0.02787769 23.35443521 -0.028615 C27.51403126 -0.03046368 31.67361762 -0.03801002 35.83320808 -0.04475021 C44.93224819 -0.05834107 54.0312839 -0.06435927 63.13033247 -0.06876087 C68.80913544 -0.07152172 74.4879367 -0.07575875 80.16673851 -0.08026505 C95.88240324 -0.09245812 111.5980666 -0.10275773 127.31373596 -0.10614014 C128.31986061 -0.1063597 129.32598527 -0.10657927 130.36259855 -0.10680549 C131.37115927 -0.10702377 132.37971998 -0.10724204 133.41884315 -0.10746694 C135.46264513 -0.10791041 137.50644712 -0.10835697 139.5502491 -0.10880661 C140.56405007 -0.10902804 141.57785103 -0.10924947 142.62237324 -0.10947761 C159.05673541 -0.11342727 175.49105328 -0.13088623 191.92539833 -0.15416613 C208.78869428 -0.17786136 225.65196798 -0.19034113 242.51528084 -0.19150805 C251.98732803 -0.19242579 261.45931749 -0.19820279 270.9313488 -0.21632767 C278.99548003 -0.23170391 287.05953569 -0.23686376 295.12367879 -0.22858956 C299.23971762 -0.2246744 303.35560415 -0.22565471 307.47162437 -0.23964691 C311.23808312 -0.252334 315.00427432 -0.25123439 318.77073242 -0.2390562 C320.78204479 -0.23615726 322.79336157 -0.24807413 324.80463779 -0.26047826 C326.59332725 -0.25059349 326.59332725 -0.25059349 328.41815186 -0.24050903 C329.44746633 -0.24110612 330.47678081 -0.24170321 331.53728664 -0.24231839 C335.75365232 0.32096204 338.36909348 2.16560418 341.33491707 5.13142776 C342.7913469 8.96436121 342.46774729 13.0729728 342.44844246 17.11287308 C342.44858849 17.91324997 342.44873451 18.71362686 342.44888496 19.5382576 C342.44818937 22.17871707 342.44041347 24.81910564 342.43257332 27.45955276 C342.43070789 29.2922957 342.42928457 31.12503913 342.4282856 32.95778275 C342.42447029 37.77792618 342.4146484 42.59803941 342.40358162 47.41817093 C342.39334632 52.33821072 342.38878343 57.25825539 342.38374519 62.17830276 C342.37302526 71.82935769 342.35596066 81.48039021 342.33491707 91.13142776 C343.20077934 91.12698654 344.06664162 91.12254532 344.95874214 91.11796951 C353.12463258 91.07787058 361.29048987 91.04743204 369.45645618 91.02780342 C373.65451132 91.01737288 377.85248499 91.00322699 382.05049324 90.98054886 C386.10293375 90.95879447 390.15529597 90.94685365 394.20779037 90.94167328 C395.75272351 90.93798218 397.29765244 90.93077439 398.84255219 90.91996765 C401.00896477 90.90541811 403.17505517 90.90345125 405.34150887 90.90437698 C406.57394829 90.89993576 407.80638771 90.89549454 409.07617378 90.89091873 C413.4275187 91.21206639 416.21824696 92.18722732 419.54316902 94.99861526 C422.30995144 99.83624328 422.48555797 104.76980974 423.00288582 110.25642776 C423.12803062 111.43608109 423.25317543 112.61573441 423.3821125 113.8311348 C423.7782902 117.59643402 424.15097312 121.36361576 424.52241707 125.13142776 C424.90965988 128.89857197 425.30163319 132.66519657 425.69485664 136.43172073 C425.93764327 138.77402224 426.17599704 141.11678844 426.40942574 143.46004105 C426.51656395 144.52464554 426.62370216 145.58925003 426.73408699 146.68611526 C426.87254288 148.08579544 426.87254288 148.08579544 427.01379585 149.51375198 C427.32977109 152.08947943 427.79174707 154.59478249 428.33491707 157.13142776 C429.60609383 157.35806107 430.87727058 157.58469437 432.18696785 157.81819534 C436.91866132 158.66432368 441.6480757 159.52264562 446.37690926 160.38460159 C448.42090721 160.75542827 450.46550235 161.12297924 452.51069832 161.48714066 C455.45635513 162.01222977 458.39963812 162.54919984 461.34272957 163.08845901 C462.70713676 163.32771858 462.70713676 163.32771858 464.09910774 163.57181168 C474.94784917 165.58838826 474.94784917 165.58838826 478.97381783 169.8774147 C480.6888789 172.71759706 480.69743543 174.51199397 480.67549324 177.8179512 C480.67526665 178.95883194 480.67504005 180.09971268 480.67480659 181.27516556 C480.65932274 182.50132584 480.64383888 183.72748611 480.62788582 184.99080276 C480.62364098 186.25031754 480.61939613 187.50983231 480.61502266 188.80751419 C480.60107828 192.14831315 480.57414632 195.4884936 480.54091072 198.82912064 C480.51016546 202.24103335 480.49650785 205.65301006 480.48140144 209.06502151 C480.44831521 215.75399425 480.39810231 222.44267531 480.33491707 229.13142776 C481.14315926 229.09662308 481.95140144 229.06181839 482.78413582 229.02595901 C484.38708504 228.98535355 484.38708504 228.98535355 486.02241707 228.94392776 C487.07815926 228.90912308 488.13390144 228.87431839 489.22163582 228.83845901 C493.67568335 229.25759774 496.21993061 231.01644131 499.33491707 234.13142776 C500.17194733 238.6161478 499.84746483 242.16547237 497.70991707 246.19392776 C492.24347506 249.3320704 486.49205255 248.50635482 480.33491707 248.13142776 C480.39292488 249.21681839 480.45093269 250.30220901 480.51069832 251.42049026 C480.55762264 252.86575952 480.60311994 254.3110756 480.64741707 255.75642776 C480.6893116 256.46927933 480.73120613 257.18213089 480.77437019 257.91658401 C480.79048347 258.61912308 480.80659676 259.32166214 480.82319832 260.04549026 C480.8493824 260.68438187 480.87556648 261.32327347 480.90254402 261.98152542 C479.98661126 265.45064536 478.10340147 267.93850978 475.33491707 270.13142776 C472.48928517 270.74293055 470.46515399 270.97318549 467.62788582 270.93611526 C466.90249107 270.94982162 466.17709633 270.96352798 465.42971992 270.97764969 C463.12664953 271.01485981 460.82574462 271.01124191 458.52241707 271.00642776 C456.95532621 271.02456127 455.38826384 271.04536604 453.82124519 271.06892776 C449.9921078 271.12069278 446.16438509 271.13586479 442.33491707 271.13142776 C442.08749763 271.85950638 441.8400782 272.58758499 441.58516121 273.33772659 C437.24934062 285.73535093 430.87691118 294.4822355 419.33491707 301.13142776 C406.32211543 307.08409234 393.91963076 307.59089569 380.33491707 303.13142776 C368.82117917 297.97539708 360.35425464 289.76539624 355.33491707 278.13142776 C354.67491707 275.82142776 354.01491707 273.51142776 353.33491707 271.13142776 C292.61491707 271.13142776 231.89491707 271.13142776 169.33491707 271.13142776 C168.01491707 274.76142776 166.69491707 278.39142776 165.33491707 282.13142776 C159.21359222 293.29705148 149.80977018 300.58699119 137.76069832 304.45564651 C125.20476545 307.95351509 112.47858274 306.24078055 101.02241707 300.00642776 C90.50717949 293.37032922 83.19526378 283.32896084 80.33491707 271.13142776 C79.24354942 271.13000275 78.15218178 271.12857773 77.02774239 271.12710953 C66.74251057 271.1104399 56.45767441 271.0676673 46.17265224 270.9993372 C40.88496732 270.96504661 35.59757196 270.93995397 30.30977058 270.93587112 C25.20666793 270.93159265 20.1042187 270.90316715 15.00131989 270.85799599 C13.05452149 270.84500659 11.10764496 270.8407184 9.16080856 270.84527397 C6.43337772 270.85016973 3.70786418 270.82413405 0.98066902 270.79085159 C0.17578041 270.79947723 -0.6291082 270.80810287 -1.45838737 270.8169899 C-5.123152 270.7420219 -7.34371242 270.35545628 -10.37220192 268.24428558 C-13.66809889 263.76971469 -13.3578724 260.11373183 -13.29327202 254.68646622 C-13.30036641 253.62329274 -13.30746079 252.56011927 -13.31477016 251.46472842 C-13.33239613 247.89614971 -13.31422078 244.3286535 -13.29618645 240.76008987 C-13.30132343 238.2042936 -13.30860303 235.64850086 -13.31786919 233.09271622 C-13.33449118 226.86817144 -13.32773088 220.64402917 -13.30978096 214.41949957 C-13.29575769 209.36146845 -13.29186155 204.30352256 -13.29522324 199.24547386 C-13.29570068 198.52571228 -13.29617812 197.8059507 -13.29667003 197.06437816 C-13.29769635 195.60222874 -13.29875171 194.14007933 -13.29983579 192.67792995 C-13.30840365 179.74854803 -13.29172447 166.81931771 -13.26200676 153.88997269 C-13.23316311 141.34075428 -13.2260885 128.79175422 -13.24149895 116.24251175 C-13.25825434 102.57930698 -13.26230257 88.91620588 -13.24478859 75.25299841 C-13.24294418 73.79652092 -13.24110945 72.34004342 -13.23928452 70.8835659 C-13.23791638 69.80861958 -13.23791638 69.80861958 -13.23652061 68.71195717 C-13.23091154 63.65877422 -13.23422577 58.60564184 -13.24082947 53.55246162 C-13.24936151 46.75376404 -13.23642543 39.95542889 -13.20898056 33.15676689 C-13.20207683 30.65737597 -13.20201988 28.15795568 -13.20919609 25.65856552 C-13.21784402 22.25515652 -13.20201264 18.85273206 -13.17974663 15.44940567 C-13.18798739 14.45282108 -13.19622816 13.45623649 -13.20471865 12.42945236 C-13.12396725 5.77382614 -13.12396725 5.77382614 -10.82041645 2.54905415 C-7.1749578 0.15132855 -4.25678506 0.00515658 0 0 Z M6.33491707 19.13142776 C6.33491707 95.69142776 6.33491707 172.25142776 6.33491707 251.13142776 C30.75491707 251.13142776 55.17491707 251.13142776 80.33491707 251.13142776 C82.97491707 245.85142776 85.61491707 240.57142776 88.33491707 235.13142776 C95.84858975 225.02212271 105.65623758 219.03383679 118.05757332 216.59627151 C131.64488412 214.8954139 143.78721167 218.95885214 154.75288582 226.87752151 C160.89170881 232.39890003 163.97015799 239.74714567 167.33491707 247.13142776 C167.99491707 248.45142776 168.65491707 249.77142776 169.33491707 251.13142776 C219.82491707 251.13142776 270.31491707 251.13142776 322.33491707 251.13142776 C322.33491707 174.57142776 322.33491707 98.01142776 322.33491707 19.13142776 C218.05491707 19.13142776 113.77491707 19.13142776 6.33491707 19.13142776 Z M342.33491707 111.13142776 C342.33491707 157.33142776 342.33491707 203.53142776 342.33491707 251.13142776 C345.96491707 251.13142776 349.59491707 251.13142776 353.33491707 251.13142776 C353.61464363 250.36959183 353.89437019 249.60775589 354.18257332 248.82283401 C358.98671816 236.44945774 366.36487261 226.43324295 378.39741707 220.31892776 C390.31174701 215.33537147 402.92571602 214.7953185 414.90913582 219.54939651 C428.43130652 225.59793849 434.32293173 233.93755725 440.33491707 247.13142776 C440.99491707 248.45142776 441.65491707 249.77142776 442.33491707 251.13142776 C448.60491707 251.13142776 454.87491707 251.13142776 461.33491707 251.13142776 C461.33491707 228.69142776 461.33491707 206.25142776 461.33491707 183.13142776 C446.42445603 180.33357804 446.42445603 180.33357804 431.50801277 177.5679512 C429.63368564 177.21006409 427.75956602 176.85108768 425.88569832 176.49080276 C424.43423409 176.23000931 424.43423409 176.23000931 422.95344734 175.9639473 C417.8453386 174.96653334 413.95863542 174.15303002 410.33491707 170.13142776 C409.55537605 168.13728714 409.55537605 168.13728714 409.33101082 165.97517776 C409.23215584 165.13414505 409.13330086 164.29311234 409.03145027 163.42659378 C408.94596931 162.504189 408.86048836 161.58178421 408.77241707 160.63142776 C408.66437752 159.6619722 408.55633797 158.69251663 408.44502449 157.69368362 C408.1998984 155.47327951 407.96506497 153.25172495 407.73823738 151.02937698 C407.19792754 145.80747206 406.60407536 140.59210228 406.01146126 135.37591934 C405.09636589 127.29674509 404.21945818 119.2143034 403.33491707 111.13142776 C383.20491707 111.13142776 363.07491707 111.13142776 342.33491707 111.13142776 Z M105.33491707 243.13142776 C99.68083183 250.94017791 98.3785708 257.48002518 99.33491707 267.13142776 C101.44133916 274.06467358 105.26724299 279.1991583 111.33491707 283.13142776 C118.30280541 286.73979851 124.47528728 287.86003844 132.06538582 285.92049026 C140.03059667 283.15117427 144.91358252 278.22264821 149.14741707 271.06892776 C151.4446545 265.12779647 151.45723934 257.72861452 149.57319832 251.69002151 C148.62205266 249.70878135 147.57872004 247.94098834 146.33491707 246.13142776 C145.75741707 245.24455276 145.17991707 244.35767776 144.58491707 243.44392776 C138.97394203 237.67709231 133.07370928 235.01837849 125.08491707 234.88142776 C116.86409405 234.97994628 111.21576868 237.25057616 105.33491707 243.13142776 Z M378.33491707 243.13142776 C372.68083183 250.94017791 371.3785708 257.48002518 372.33491707 267.13142776 C374.44133916 274.06467358 378.26724299 279.1991583 384.33491707 283.13142776 C391.30280541 286.73979851 397.47528728 287.86003844 405.06538582 285.92049026 C413.03846744 283.14843779 417.96838321 278.21165856 422.14741707 271.00642776 C424.58013935 264.73695491 424.26899109 257.0726567 422.14741707 250.75642776 C418.95913538 243.5753447 413.66897091 239.14726676 406.64741707 235.88142776 C395.76253955 233.41692719 386.32227773 235.14406711 378.33491707 243.13142776 Z " fill="#000000" transform="translate(12.665082931518555,102.86857223510742)"/>
<path d="M0 0 C2.75329021 1.79562405 4.52627461 3.05254922 6 6 C6.09039906 7.6648064 6.11755257 9.33323421 6.11352539 11.00048828 C6.11340454 12.05598877 6.11328369 13.11148926 6.11315918 14.19897461 C6.10548523 15.86778687 6.10548523 15.86778687 6.09765625 17.5703125 C6.09664917 18.5905249 6.09564209 19.6107373 6.09460449 20.66186523 C6.08936163 24.48292155 6.07540043 28.30396187 6.0625 32.125 C6.041875 40.66375 6.02125 49.2025 6 58 C27.12 58 48.24 58 70 58 C69.84183424 41.11168123 69.84183424 41.11168123 69.63964844 24.22387695 C69.6279639 22.10368657 69.61777152 19.98348721 69.609375 17.86328125 C69.58891113 16.76608765 69.56844727 15.66889404 69.54736328 14.53845215 C69.54380129 6.76351715 69.54380129 6.76351715 71.89941406 2.82104492 C75.59548419 -0.38316092 78.15615587 -0.25054366 83 0 C86.38031589 1.18767855 86.93216817 1.89825225 89 5 C89.28088379 7.87069702 89.28088379 7.87069702 89.32226562 11.41162109 C89.33716034 12.38046486 89.33716034 12.38046486 89.35235596 13.36888123 C89.38154494 15.5037768 89.39519289 17.63837525 89.40625 19.7734375 C89.41775708 21.25932827 89.42927249 22.74521898 89.4407959 24.23110962 C89.46180013 27.34646994 89.47349574 30.46172728 89.48046875 33.57714844 C89.49143857 37.56457505 89.53949483 41.55063569 89.59641266 45.5376339 C89.63370602 48.60720771 89.64407854 51.67645369 89.6471405 54.74623489 C89.6531854 56.21587217 89.66921598 57.68550422 89.69551086 59.15491867 C89.72973195 61.214192 89.72585727 63.27014554 89.71289062 65.32958984 C89.72382751 67.08473404 89.72382751 67.08473404 89.73498535 68.87533569 C88.9191256 72.34382365 87.74715915 73.97797807 84.8555851 76.07930756 C81.37966241 77.80396883 77.95132142 77.68602505 74.13647461 77.63110352 C73.26580856 77.63825882 72.39514252 77.64541412 71.49809265 77.65278625 C68.6323024 77.66963679 65.76808441 77.65029391 62.90234375 77.62890625 C60.90507376 77.62973521 58.90780384 77.63219561 56.91053772 77.63621521 C52.73010662 77.63907062 48.55021206 77.62439557 44.36987305 77.59692383 C39.01408224 77.56281959 33.65924928 77.56886915 28.30341244 77.5875864 C24.1812391 77.59815869 20.05928834 77.58921682 15.9371357 77.57420158 C13.96239445 77.56902249 11.98762993 77.56949826 10.01289177 77.57574654 C7.25279679 77.58120234 4.4940699 77.56081298 1.73413086 77.53344727 C0.91996704 77.53997314 0.10580322 77.54649902 -0.73303223 77.55322266 C-4.68131869 77.48672182 -6.57147563 77.2741084 -9.98338318 75.09165955 C-13.27782073 71.67462876 -13.13658812 69.54586453 -13.17700195 64.88549805 C-13.18983719 63.60043869 -13.20267242 62.31537933 -13.21589661 60.99137878 C-13.22406418 59.58149602 -13.23150788 58.1716089 -13.23828125 56.76171875 C-13.24235678 56.0526771 -13.2464323 55.34363544 -13.25063133 54.61310768 C-13.27149266 50.85966915 -13.28579363 47.10626718 -13.29516602 43.3527832 C-13.30622617 39.47888784 -13.34062044 35.60556759 -13.38033772 31.73187542 C-13.40650477 28.75068608 -13.41485791 25.76963369 -13.41844749 22.78833961 C-13.4233139 21.36060518 -13.43492961 19.93287689 -13.45348549 18.50525475 C-13.47787217 16.50453942 -13.47449259 14.50354438 -13.4699707 12.50268555 C-13.47583694 11.365103 -13.48170319 10.22752045 -13.48774719 9.0554657 C-12.89292654 5.32924415 -11.60380877 3.67892429 -9 1 C-5.89951072 -0.55024464 -3.42105782 -0.28992015 0 0 Z " fill="#000000" transform="translate(139,221)"/>
<path d="M0 0 C3.31530723 1.93449886 6.09621017 4.50404582 9 7 C10.93724308 8.58711365 12.88443498 10.16151065 14.83227539 11.7355957 C16.94328707 13.44217838 19.04839784 15.15581083 21.15234375 16.87109375 C24.08951237 19.26273746 27.03785565 21.63930628 30 24 C33.57937937 26.85269329 37.13381626 29.73443917 40.68139648 32.62646484 C46.56475667 37.42175405 52.4671005 42.18835503 58.4375 46.875 C59.01185791 47.32746094 59.58621582 47.77992188 60.17797852 48.24609375 C62.68104834 50.21162324 65.19873804 52.14568509 67.765625 54.02734375 C75.62604086 59.82123092 75.62604086 59.82123092 77 65 C76.73155888 68.90730967 75.85564137 71.94690293 73.375 75 C69.92898569 76.45095339 66.65194905 76.53815503 63 76 C60.5529922 74.58610767 58.77705884 73.37252802 56.6875 71.5625 C55.85085815 70.87861206 55.85085815 70.87861206 54.99731445 70.1809082 C53.31754368 68.80320462 51.65906942 67.40250184 50 66 C48.23042608 64.56094994 46.4596539 63.12337168 44.6875 61.6875 C43.80578125 60.96046875 42.9240625 60.2334375 42.015625 59.484375 C38.33579136 56.45280221 34.63804264 53.4437344 30.9375 50.4375 C30.24293701 49.87313232 29.54837402 49.30876465 28.83276367 48.72729492 C24.48013558 45.19359579 20.11035375 41.68248134 15.7265625 38.1875 C9.45773627 33.15806921 3.23298317 28.07373658 -3 23 C-5.878418 24.3314565 -8.19196251 25.83298322 -10.6171875 27.87109375 C-11.64005859 28.72380859 -11.64005859 28.72380859 -12.68359375 29.59375 C-13.40675781 30.2021875 -14.12992187 30.810625 -14.875 31.4375 C-20.19355665 35.86812044 -25.53296832 40.25373073 -31 44.5 C-36.32298734 48.64267949 -41.55095437 52.89038195 -46.75 57.1875 C-59.37279769 67.61716924 -59.37279769 67.61716924 -65 72 C-65.81791016 72.67675781 -65.81791016 72.67675781 -66.65234375 73.3671875 C-69.37178154 75.45906272 -71.69767101 76.31812694 -75.0625 76.5625 C-79 76 -79 76 -82 74.0625 C-84.31054342 70.52448038 -84.87412891 68.42191378 -84.5859375 64.25 C-83.44577546 59.87177777 -80.44566814 57.73011405 -77 55 C-76.4956543 54.59523437 -75.99130859 54.19046875 -75.47167969 53.7734375 C-72.51546588 51.40431009 -69.53629555 49.06697636 -66.5390625 46.75 C-62.62614295 43.72172233 -58.80120797 40.59272207 -54.98046875 37.44921875 C-46.27726227 30.29730464 -37.53321564 23.19306884 -28.71484375 16.18359375 C-26.44403384 14.35714376 -24.19013315 12.51359309 -21.94140625 10.66015625 C-21.22017578 10.06783203 -20.49894531 9.47550781 -19.75585938 8.86523438 C-18.31540646 7.68131804 -16.87780645 6.49392038 -15.44335938 5.30273438 C-14.78271484 4.76068359 -14.12207031 4.21863281 -13.44140625 3.66015625 C-12.85045166 3.17168213 -12.25949707 2.68320801 -11.65063477 2.17993164 C-7.9477912 -0.46699085 -4.38439022 -0.56572777 0 0 Z " fill="#000000" transform="translate(181,149)"/>
</svg>
