<?xml version="1.0" encoding="UTF-8"?>
<svg version="1.1" xmlns="http://www.w3.org/2000/svg" width="256" height="256">
<path d="M0 0 C2.7660619 2.2113503 5.46291408 4.47848087 8.1328125 6.8046875 C8.75800781 7.34480469 9.38320312 7.88492188 10.02734375 8.44140625 C27.76911462 24.93668268 36.51783644 48.26990299 39.1328125 71.8046875 C7.4528125 71.8046875 -24.2271875 71.8046875 -56.8671875 71.8046875 C-54.8671875 67.8046875 -54.8671875 67.8046875 -52.8046875 65.9921875 C-50.16804645 63.01533471 -50.07688878 60.71911147 -49.8671875 56.8046875 C-49.98162006 54.49442476 -49.98162006 54.49442476 -50.8671875 52.8046875 C-54.6321262 51.54970793 -56.89727368 51.28404306 -60.8671875 51.8046875 C-67.94114434 56.67754819 -73.84336865 63.66364421 -79.8671875 69.7421875 C-80.84221136 70.7222406 -81.8174703 71.7020599 -82.79296875 72.68164062 C-85.15335368 75.05371063 -87.51135655 77.4280961 -89.8671875 79.8046875 C-88.25064157 83.86268346 -85.36025237 86.58369126 -82.30859375 89.59375 C-81.76363754 90.13824799 -81.21868134 90.68274597 -80.6572113 91.2437439 C-79.50715707 92.39078432 -78.3546806 93.53540062 -77.19995117 94.67773438 C-75.43414961 96.42527154 -73.67648962 98.18068647 -71.91992188 99.9375 C-70.79994999 101.05255643 -69.67952251 102.16715548 -68.55859375 103.28125 C-68.03350723 103.80522369 -67.50842072 104.32919739 -66.96742249 104.86904907 C-62.44415715 109.43770397 -62.44415715 109.43770397 -56.4296875 111.1796875 C-52.8899149 111.07636879 -52.8899149 111.07636879 -50.4296875 109.2421875 C-48.13204075 105.65785856 -48.03941718 104.01251998 -48.8671875 99.8046875 C-50.79158896 97.21511249 -52.86407515 94.93287549 -55.1171875 92.625 C-56.8671875 90.8046875 -56.8671875 90.8046875 -56.8671875 89.8046875 C-25.1871875 89.8046875 6.4928125 89.8046875 39.1328125 89.8046875 C33.1869862 119.53381902 22.19110626 144.93759217 -3.53735352 162.44091797 C-26.11091849 177.22575608 -52.62960777 183.57037046 -79.43408203 178.67749023 C-105.07476228 173.29321145 -128.71916232 158.99089147 -143.55395508 137.08178711 C-158.6399712 113.91551164 -164.98774985 86.20298953 -159.2421875 58.8671875 C-153.41888516 33.41827445 -138.45483459 10.34426903 -116.43359375 -3.99609375 C-80.32303063 -26.6315202 -34.21922573 -26.20055158 0 0 Z " fill="#000000" transform="translate(188.8671875,48.1953125)"/>
<path d="M0 0 C1.01247803 0.27408691 1.01247803 0.27408691 2.04541016 0.55371094 C32.31829414 8.88268602 61.01342228 28.59651721 77 56 C77.40943848 56.69963867 77.81887695 57.39927734 78.24072266 58.12011719 C84.66997596 69.30121891 89.58876157 80.56227976 93 93 C93.50853516 94.76150391 93.50853516 94.76150391 94.02734375 96.55859375 C98.38980524 114.9130976 98.21629674 138.90223765 93 157 C92.81727539 157.67498535 92.63455078 158.3499707 92.44628906 159.04541016 C84.11731398 189.31829414 64.40348279 218.01342228 37 234 C36.30036133 234.40943848 35.60072266 234.81887695 34.87988281 235.24072266 C23.69878109 241.66997596 12.43772024 246.58876157 0 250 C-1.17433594 250.33902344 -2.34867188 250.67804688 -3.55859375 251.02734375 C-21.9130976 255.38980524 -45.90223765 255.21629674 -64 250 C-64.67498535 249.81727539 -65.3499707 249.63455078 -66.04541016 249.44628906 C-96.31829414 241.11731398 -125.01342228 221.40348279 -141 194 C-141.40943848 193.30036133 -141.81887695 192.60072266 -142.24072266 191.87988281 C-148.66997596 180.69878109 -153.58876157 169.43772024 -157 157 C-157.33902344 155.82566406 -157.67804688 154.65132812 -158.02734375 153.44140625 C-162.38980524 135.0869024 -162.21629674 111.09776235 -157 93 C-156.72591309 91.98752197 -156.72591309 91.98752197 -156.44628906 90.95458984 C-148.11731398 60.68170586 -128.40348279 31.98657772 -101 16 C-99.95054199 15.38584229 -99.95054199 15.38584229 -98.87988281 14.75927734 C-87.69878109 8.33002404 -76.43772024 3.41123843 -64 0 C-62.82566406 -0.33902344 -61.65132813 -0.67804688 -60.44140625 -1.02734375 C-42.0869024 -5.38980524 -18.09776235 -5.21629674 0 0 Z M-122 51 C-141.95463884 75.25212028 -150.20454086 105.98368847 -148 137 C-144.5153605 168.24615138 -128.54801415 196.44749928 -104.34667969 216.36035156 C-79.49818154 235.58277466 -48.42405826 244.16991347 -17.22851562 240.69091797 C13.42938682 236.26845341 41.58034558 220.33058986 60.6015625 195.7421875 C79.04412721 169.94794751 87.88027536 139.27044656 83.30859375 107.578125 C78.01195808 76.62379887 61.24185738 48.48542506 35.5625 30.125 C-16.54133714 -3.79283601 -80.84856306 4.37203786 -122 51 Z " fill="#000000" transform="translate(160,3)"/>
</svg>
